# xmcd
#
# Track frame offsets:
#	150
#	10530
#	25968
#	35803
#	47965
#	57253
#	69195
#	84290
#	92460
#	101673
#	110678
#	128855
#	144413
#	154248
#	170143
#	187755
#	201365
#
# Disc length: 3509 seconds
#
# Revision: 10
# Processed by: cddbd v1.5.2PL0 Copyright (c) Steve Scherf et al.
# Submitted via: EZCDAudioConverter 1.3.4.1
#
DISCID=e20db311
DTITLE=The Byrds - Notorious Byrd Brothers
DYEAR=1968
DGENRE=
TTITLE0=Artificial Energy
TTITLE1=Goin' Back
TTITLE2=Natural Harmony
TTITLE3=Draft Morning
TTITLE4=Wasn't Born To Follow
TTITLE5=Get To You
TTITLE6=Change Is Now
TTITLE7=Old John Robertson
TTITLE8=Tribal Gathering
TTITLE9=Dolphin's Smile
TTITLE10=Space Odyssey
TTITLE11=Moog Raga [Instrumental]
TTITLE12=Bound To Fall [Instrumental]
TTITLE13=Triad
TTITLE14=Goin' Back [Version 1]
TTITLE15=Draft Morning [Alternate End]
TTITLE16=Universal Mind Decoder [Instrumental]
EXTD=
EXTT0=
EXTT1=
EXTT2=
EXTT3=
EXTT4=
EXTT5=
EXTT6=
EXTT7=
EXTT8=
EXTT9=
EXTT10=
EXTT11=
EXTT12=
EXTT13=
EXTT14=
EXTT15=
EXTT16=
PLAYORDER=
